<?xml version="1.0" standalone="no"?>
<!DOCTYPE svg PUBLIC "-//W3C//DTD SVG 20010904//EN"
 "http://www.w3.org/TR/2001/REC-SVG-20010904/DTD/svg10.dtd">
<svg version="1.0" xmlns="http://www.w3.org/2000/svg"
 width="644.000000pt" height="644.000000pt" viewBox="0 0 644.000000 644.000000"
 preserveAspectRatio="xMidYMid meet">
<metadata>
Created by potrace 1.14, written by Peter Selinger 2001-2017
</metadata>
<g transform="translate(0.000000,644.000000) scale(0.100000,-0.100000)"
fill="#000000" stroke="none">
<path d="M2214 3871 c2 -3 47 -95 100 -203 l97 -198 107 5 c87 3 731 15 1036
19 l68 1 48 -122 c29 -75 43 -124 36 -124 -6 -1 -20 -3 -31 -4 -11 -2 -58 -6
-105 -9 -47 -3 -110 -8 -140 -11 -30 -2 -93 -7 -140 -10 -47 -3 -110 -8 -140
-10 -30 -2 -93 -7 -140 -10 -47 -3 -110 -8 -140 -10 -76 -6 -203 -15 -275 -20
-139 -9 -233 -16 -285 -20 -30 -2 -93 -7 -140 -10 -47 -3 -110 -7 -140 -10
-30 -3 -93 -7 -140 -10 -78 -5 -143 -9 -290 -20 -136 -11 -210 -16 -270 -20
-74 -4 -194 -13 -290 -20 -132 -10 -197 -15 -430 -31 -41 -2 -95 -6 -120 -9
-24 -2 -97 -6 -162 -10 -65 -4 -125 -8 -134 -9 -16 -3 -58 -83 -46 -90 4 -2
25 -2 47 -1 22 2 90 6 150 10 61 4 126 8 145 10 19 2 82 6 140 9 58 4 130 9
160 11 30 3 93 7 140 10 47 3 114 7 150 10 72 5 175 12 295 20 44 3 109 8 145
10 36 3 103 7 150 10 47 3 110 7 140 10 30 2 98 7 150 10 52 3 115 7 140 10
25 3 92 7 150 11 58 3 125 7 150 9 25 2 86 6 135 10 50 3 119 8 155 10 36 3
103 7 150 10 110 7 183 12 300 21 52 3 111 8 130 9 19 1 89 6 155 10 66 4 136
9 155 10 19 2 82 7 140 10 58 4 125 8 150 10 25 2 88 6 140 10 52 3 120 8 150
10 30 3 93 7 140 10 47 2 110 7 140 10 30 2 102 7 160 11 58 3 125 7 150 9 25
2 90 7 145 10 55 4 120 8 145 10 66 5 248 17 300 20 62 3 236 16 290 20 25 3
97 7 160 10 63 3 125 8 138 11 26 5 29 -6 5 -26 -10 -8 -99 -82 -198 -165 -99
-82 -182 -152 -185 -155 -3 -3 -99 -84 -215 -180 -115 -96 -218 -183 -230
-192 -19 -17 -18 -17 41 -18 l61 0 200 143 c110 78 387 273 616 432 229 160
416 293 416 297 1 4 -29 5 -66 3 -112 -8 -225 -16 -273 -20 -25 -2 -90 -6
-145 -10 -55 -3 -122 -8 -150 -10 -27 -3 -84 -7 -125 -10 -41 -2 -104 -7 -140
-10 -74 -5 -195 -14 -290 -20 -36 -3 -94 -7 -130 -9 -36 -3 -114 -8 -175 -11
-104 -6 -171 -10 -275 -20 -25 -2 -94 -7 -155 -10 -60 -4 -123 -8 -140 -10
-16 -2 -77 -7 -135 -10 -58 -4 -123 -8 -145 -10 -22 -2 -81 -7 -130 -11 l-91
-6 -52 163 c-30 90 -55 170 -57 177 -4 10 -111 12 -552 7 -302 -3 -584 -8
-629 -10 l-81 -4 -69 145 -69 145 -77 -2 c-43 -1 -76 -5 -74 -8z"/>
<path d="M4817 3093 c-2 -5 -5 -59 -6 -122 -2 -120 2 -132 42 -124 21 4 22 9
22 96 0 84 2 92 20 98 11 3 30 3 42 1 21 -4 22 -10 25 -100 l3 -95 28 -1 c25
-2 32 5 28 28 -4 20 -2 158 2 162 2 3 17 6 32 7 24 2 30 -3 37 -29 6 -25 17
-36 48 -48 22 -9 47 -16 54 -16 7 0 19 -7 26 -15 10 -12 10 -18 -1 -31 -10
-13 -25 -15 -71 -10 -32 4 -58 3 -58 -2 0 -61 157 -64 190 -3 26 49 -1 92 -70
112 -25 7 -49 16 -55 21 -15 13 14 27 47 23 28 -3 85 31 73 44 -4 3 -96 6
-206 7 -197 1 -200 0 -197 -20 2 -17 -3 -22 -27 -24 -16 -1 -25 1 -20 5 6 4
16 16 24 26 12 15 11 17 -7 17 -12 0 -23 -3 -25 -7z"/>
<path d="M65 2760 l-65 -130 250 0 250 0 -25 50 -25 50 25 0 c21 0 31 12 65
80 l40 80 -225 0 -225 0 -65 -130z m325 36 c0 -24 -18 -31 -78 -31 -70 1 -74
-1 -91 -32 -11 -23 -11 -23 43 -23 30 0 58 -4 61 -10 4 -6 -23 -10 -75 -10
l-80 0 29 58 29 58 81 0 c50 0 81 -4 81 -10z"/>
<path d="M614 2878 c-22 -36 -94 -189 -94 -200 1 -27 29 -50 65 -51 32 -2 38
2 58 38 21 38 25 40 76 43 59 3 81 -9 101 -58 10 -24 17 -28 43 -25 18 2 64 4
103 4 l72 1 44 88 44 87 82 1 c80 1 93 -4 74 -32 -4 -6 -37 -10 -75 -9 -65 0
-70 -1 -83 -27 l-15 -28 58 0 c58 0 58 0 77 -40 18 -38 25 -42 76 -42 11 0 34
0 50 1 l30 1 -25 50 -25 50 25 0 c22 0 31 10 60 74 19 40 35 76 35 80 0 3 -99
6 -220 6 l-220 0 -47 -95 c-26 -52 -50 -95 -53 -95 -3 1 -25 43 -49 95 l-44
95 -108 0 c-73 0 -110 -4 -115 -12z m130 -87 c15 -29 15 -29 -14 -27 -17 0
-30 2 -30 3 0 5 24 53 26 53 2 0 10 -13 18 -29z"/>
<path d="M1565 2880 c-11 -19 -111 -216 -118 -233 -6 -16 11 -17 217 -17 l223
0 61 126 c34 69 62 128 62 130 0 3 -30 4 -66 2 l-66 -3 -50 -97 -50 -98 -84 0
c-46 0 -84 2 -84 4 0 2 20 44 45 94 25 50 45 93 45 96 0 10 -129 6 -135 -4z"/>
<path d="M2019 2760 c-71 -142 -72 -133 6 -132 69 0 69 0 105 80 19 42 42 83
50 89 13 11 170 17 170 7 0 -2 -20 -42 -43 -89 -24 -47 -40 -85 -35 -86 4 0
26 -1 48 -1 22 0 49 1 60 1 15 1 35 30 82 124 35 67 64 125 66 130 2 4 -97 7
-220 7 l-223 0 -66 -130z"/>
<path d="M2520 2789 c-47 -93 -50 -104 -39 -130 10 -25 17 -29 53 -29 39 0 44
3 65 40 22 40 23 40 82 40 l60 0 17 -40 c14 -32 22 -40 45 -41 34 -1 473 -1
487 0 8 1 70 120 70 134 0 2 -62 2 -137 2 -76 0 -143 1 -149 3 -7 2 -10 12 -7
22 4 17 17 18 151 18 81 0 153 1 159 1 10 1 43 60 43 77 0 2 -98 4 -218 4
l-219 0 -46 -90 -47 -90 32 -1 c18 0 67 -2 108 -4 41 -1 95 -3 119 -4 24 0 42
-4 38 -7 -5 -5 -112 -7 -262 -5 l-41 1 -49 100 -48 100 -108 0 -107 0 -52
-101z m174 14 c10 -31 7 -37 -19 -39 -29 -1 -28 -2 -13 31 13 29 24 32 32 8z"/>
<path d="M3482 2863 c-22 -56 -22 -56 51 -55 46 1 67 -2 67 -11 0 -7 -16 -41
-35 -77 -19 -35 -35 -70 -35 -77 0 -9 18 -13 65 -13 l65 0 43 88 43 87 73 0
c73 1 74 2 98 35 12 19 23 38 23 42 0 4 -101 8 -224 8 l-224 0 -10 -27z"/>
<path d="M3951 2773 c-34 -65 -62 -125 -63 -133 -2 -12 9 -15 55 -14 70 1 78
8 126 106 l36 73 83 0 c49 0 82 -4 82 -10 -1 -25 -18 -32 -83 -31 -65 2 -69 0
-83 -26 l-14 -27 58 -3 c55 -3 58 -4 75 -40 l19 -38 69 0 69 0 -20 40 c-25 48
-25 60 -2 60 12 0 29 24 55 75 20 42 37 78 37 80 0 3 -99 5 -220 5 l-219 0
-60 -117z"/>
<path d="M4473 2790 c-46 -90 -51 -104 -41 -130 5 -17 15 -30 21 -31 7 0 19
-2 27 -3 29 -6 60 14 74 48 15 35 15 36 76 35 60 -1 61 -1 81 -40 l19 -39 65
0 c36 0 65 2 65 4 0 3 -27 61 -60 130 l-60 126 -108 0 -107 0 -52 -100z m175
6 c12 -27 2 -37 -30 -28 -14 3 -15 8 -6 28 14 30 22 30 36 0z"/>
</g>
</svg>
